<svg width="54" height="48" viewBox="0 0 54 48" fill="none" xmlns="http://www.w3.org/2000/svg">
<path d="M27.4272 0.589481L52.0181 9.79734C52.273 9.88823 52.6011 10.0767 52.8339 10.3272C53.0257 10.5334 53.162 10.7883 53.1576 11.0743L53.1587 37.5805C53.1587 37.8588 53.0711 38.1204 52.9182 38.3332C52.7663 38.546 52.5457 38.7167 52.2841 38.8054L27.5237 47.3504C27.4461 47.3726 27.3308 47.4113 27.1989 47.4235C27.098 47.4313 26.9739 47.4335 26.8386 47.4169C26.5527 47.3781 26.423 47.3027 26.2689 47.2129L1.91524 38.8043C1.65364 38.7156 1.43417 38.546 1.28342 38.3332C1.13046 38.1204 1.04289 37.8588 1.04289 37.5805V11.634L0.957538 11.4157C0.859994 11.0876 0.9132 10.7717 1.04067 10.5134C1.16593 10.2607 1.3721 10.0512 1.57827 9.93701L26.5183 0.589481C26.6646 0.535167 26.8198 0.506348 26.9739 0.506348C27.1257 0.506348 27.282 0.535167 27.4272 0.589481ZM27.0371 18.9398L48.0399 11.0743L41.1487 8.49492L21.1457 16.734L27.0371 18.9398ZM16.4547 15.8639L37.585 7.16035L34.4282 5.97764L12.1939 14.9616V19.473L15.8163 20.9306L16.3339 15.9137L16.4547 15.8639ZM30.8412 4.63309L26.9728 3.18657L5.96882 11.051L10.6321 12.7979L30.8412 4.63309ZM9.60231 15.2254L3.63443 12.9908V36.6583L25.8045 44.3099V21.2919L18.6605 18.6172L18.0409 24.6206C15.2332 23.4811 12.4189 22.3383 9.60231 21.2199V15.2254ZM28.3971 44.3099L50.566 36.6583V12.9442L28.3971 21.2443V44.3099Z" fill="#0562A9"/>
</svg>