<svg width="44" height="49" viewBox="0 0 44 49" fill="none" xmlns="http://www.w3.org/2000/svg">
<path d="M7.16635 20.1359H12.2481C12.597 20.1359 12.9154 20.2788 13.1443 20.5088C13.3766 20.7399 13.5194 21.0583 13.5194 21.4072V26.489C13.5194 26.8378 13.3766 27.1573 13.1465 27.3873C12.9165 27.6163 12.597 27.7602 12.2481 27.7602H7.16635C6.81855 27.7602 6.50019 27.6174 6.27014 27.3873C6.03791 27.1551 5.89509 26.8368 5.89509 26.489V21.4072C5.89509 21.0583 6.03791 20.7399 6.26796 20.511C6.50019 20.2788 6.81855 20.1359 7.16635 20.1359ZM37.0857 5.01491H41.7706C42.1195 5.01491 42.4389 5.15882 42.6679 5.38887C42.899 5.61783 43.0418 5.93619 43.0418 6.28726V46.7572C43.0418 47.1082 42.899 47.4266 42.669 47.6566C42.4389 47.8856 42.1195 48.0295 41.7706 48.0295H1.29958C0.951783 48.0295 0.632333 47.8856 0.402285 47.6555C0.171146 47.4266 0.0283203 47.1082 0.0283203 46.7572V6.28726C0.0283203 5.93619 0.171146 5.61783 0.401194 5.38778C0.632332 5.15882 0.951783 5.01491 1.29958 5.01491H5.9725V4.46868C5.9725 3.48634 6.37372 2.59123 7.02134 1.9436C7.67115 1.2938 8.56517 0.892578 9.54751 0.892578C10.5298 0.892578 11.4239 1.2938 12.0715 1.94142C12.7213 2.59123 13.1225 3.48634 13.1225 4.46868V5.01491H17.9535V4.46868C17.9535 3.48634 18.3547 2.59123 19.0024 1.9436C19.6522 1.2938 20.5462 0.892578 21.5285 0.892578C22.5109 0.892578 23.406 1.2938 24.0536 1.94142C24.7034 2.59123 25.1046 3.48634 25.1046 4.46868V5.01491H29.9346V4.46868C29.9346 3.48634 30.3358 2.59123 30.9834 1.9436C31.6332 1.2938 32.5272 0.892578 33.5096 0.892578C34.4919 0.892578 35.387 1.2938 36.0346 1.94142C36.6844 2.59123 37.0857 3.48634 37.0857 4.46868V5.01491ZM32.778 3.73819C32.5937 3.92354 32.4771 4.18412 32.4771 4.46868V8.77744C32.4771 9.06201 32.5937 9.32258 32.778 9.50793C32.9655 9.69328 33.225 9.80884 33.5096 9.80884C33.7941 9.80884 34.0536 9.69327 34.24 9.50684C34.4254 9.32258 34.5421 9.06201 34.5421 8.77744V4.46868C34.5421 4.18303 34.4265 3.92463 34.24 3.73819C34.0536 3.55176 33.7952 3.43619 33.5096 3.43619C33.225 3.43619 32.9655 3.55176 32.778 3.73819ZM20.0065 5.41286L21.2647 2.96846L21.2516 2.97064L20.0065 5.29402V5.41286ZM22.2601 3.73929C22.0726 3.55285 21.8131 3.43619 21.5285 3.43619C21.244 3.43619 20.9834 3.55285 20.7981 3.7371C20.6127 3.92463 20.4971 4.18412 20.4971 4.46868V8.77744C20.4971 9.06201 20.6138 9.32258 20.7981 9.50793C20.9834 9.69219 21.244 9.80884 21.5285 9.80884C21.8131 9.80884 22.0737 9.69219 22.2601 9.50793C22.4455 9.3204 22.5621 9.06091 22.5621 8.77744V4.46868C22.5621 4.18303 22.4465 3.92354 22.2601 3.73929ZM8.81702 3.7371C8.63168 3.92463 8.51611 4.18412 8.51611 4.46868V8.77744C8.51611 9.06201 8.63277 9.32258 8.81702 9.50793C9.00237 9.69219 9.26295 9.80884 9.54751 9.80884C9.83207 9.80884 10.0916 9.69327 10.278 9.50684C10.4633 9.32258 10.58 9.06201 10.58 8.77744V4.46868C10.58 4.18303 10.4644 3.92354 10.2791 3.73929C10.0905 3.55285 9.83098 3.43619 9.54751 3.43619C9.26295 3.43619 9.00237 3.55285 8.81702 3.7371ZM2.57084 45.4859H40.4993V7.55961H37.0857V8.77744C37.0857 9.76305 36.6834 10.6582 36.0368 11.3047C35.3903 11.9512 34.4941 12.3525 33.5096 12.3525C32.5272 12.3525 31.6332 11.9512 30.9856 11.3036C30.3358 10.6538 29.9346 9.75978 29.9346 8.77744V7.55961H25.1046V8.77744C25.1046 9.75978 24.7034 10.6538 24.0558 11.3014C23.406 11.9512 22.5109 12.3525 21.5285 12.3525C20.5462 12.3525 19.6522 11.9512 19.0046 11.3036C18.3547 10.6538 17.9535 9.75978 17.9535 8.77744V7.55961H13.1225V8.77744C13.1225 9.76305 12.7213 10.6571 12.0748 11.3036C11.4282 11.9501 10.5331 12.3525 9.54751 12.3525C8.56517 12.3525 7.67115 11.9512 7.02352 11.3036C6.37372 10.6538 5.9725 9.75978 5.9725 8.77744V7.55961H2.57084V45.4859ZM30.5048 31.7114H35.5865C35.9354 31.7114 36.2538 31.8553 36.4838 32.0832C36.7139 32.3154 36.8578 32.6337 36.8578 32.9826V38.0633C36.8578 38.4144 36.715 38.7327 36.486 38.9617C36.256 39.1917 35.9376 39.3346 35.5865 39.3346H30.5048C30.157 39.3346 29.8386 39.1917 29.6086 38.9617C29.3763 38.7295 29.2335 38.4111 29.2335 38.0633V32.9826C29.2335 32.6337 29.3763 32.3154 29.6064 32.0864C29.8386 31.8542 30.157 31.7114 30.5048 31.7114ZM31.7771 36.792H34.3153V34.2539H31.7771V36.792ZM19.0187 31.7114H24.1005C24.4494 31.7114 24.7677 31.8542 24.9967 32.0842C25.2289 32.3154 25.3718 32.6337 25.3718 32.9826V38.0633C25.3718 38.4111 25.2289 38.7295 24.9989 38.9595C24.7677 39.1917 24.4494 39.3346 24.1005 39.3346H19.0187C18.6709 39.3346 18.3526 39.1917 18.1225 38.9617C17.8903 38.7295 17.7475 38.4111 17.7475 38.0633V32.9826C17.7475 32.6316 17.8903 32.3132 18.1203 32.0832C18.3493 31.8542 18.6677 31.7114 19.0187 31.7114ZM20.29 36.792H22.8292V34.2539H20.29V36.792ZM7.16635 31.7114H12.2481C12.597 31.7114 12.9154 31.8542 13.1443 32.0842C13.3766 32.3154 13.5194 32.6337 13.5194 32.9826V38.0633C13.5194 38.4111 13.3766 38.7295 13.1465 38.9595C12.9154 39.1917 12.597 39.3346 12.2481 39.3346H7.16635C6.81855 39.3346 6.50019 39.1917 6.27014 38.9617C6.03791 38.7295 5.89509 38.4111 5.89509 38.0633V32.9826C5.89509 32.6316 6.03791 32.3132 6.26796 32.0832C6.49692 31.8542 6.81528 31.7114 7.16635 31.7114ZM8.4387 36.792H10.9769V34.2539H8.4387V36.792ZM30.5048 20.1359H35.5865C35.9354 20.1359 36.2538 20.2788 36.4827 20.5088C36.715 20.7399 36.8578 21.0583 36.8578 21.4072V26.489C36.8578 26.8368 36.715 27.1551 36.4849 27.3852C36.2538 27.6174 35.9354 27.7602 35.5865 27.7602H30.5048C30.1559 27.7602 29.8364 27.6174 29.6064 27.3873C29.3763 27.1573 29.2335 26.8378 29.2335 26.489V21.4072C29.2335 21.0583 29.3774 20.7388 29.6075 20.5099C29.8364 20.2788 30.1559 20.1359 30.5048 20.1359ZM31.7771 25.2177H34.3153V22.6784H31.7771V25.2177ZM19.0187 20.1359H24.1005C24.4494 20.1359 24.7677 20.2788 24.9967 20.5088C25.2289 20.7399 25.3718 21.0583 25.3718 21.4072V26.489C25.3718 26.8378 25.2289 27.1573 24.9989 27.3873C24.7688 27.6163 24.4494 27.7602 24.1005 27.7602H19.0187C18.6709 27.7602 18.3526 27.6174 18.1225 27.3873C17.8903 27.1551 17.7475 26.8368 17.7475 26.489V21.4072C17.7475 21.0583 17.8903 20.7399 18.1203 20.511C18.3526 20.2788 18.6709 20.1359 19.0187 20.1359ZM20.29 25.2177H22.8292V22.6784H20.29V25.2177ZM8.4387 25.2177H10.9769V22.6784H8.4387V25.2177Z" fill="#0562A9"/>
</svg>