<svg width="60" height="48" viewBox="0 0 60 48" fill="none" xmlns="http://www.w3.org/2000/svg">
<path d="M31.756 14.5054H0.302734V25.6053H31.756V14.5054ZM29.1678 23.0171H2.89096V17.0936H29.1678V23.0171Z" fill="#0562A9"/>
<path d="M31.7571 0.507812H17.6555V11.8749H31.7571V0.507812ZM29.1689 9.2867H20.2437V3.09603H29.1689V9.2867ZM14.4055 0.507812H0.303843V11.8749H14.4055V0.507812ZM11.8173 9.2867H2.89206V3.09603H11.8162V9.2867H11.8173ZM44.6195 10.7964H38.9055V19.6418H53.4228L44.6195 10.7964ZM41.3352 13.2261H43.6097L47.5757 17.211H41.3352V13.2261ZM0.302734 36.7728V36.9801H7.28483C6.45461 38.0742 5.96135 39.4353 5.96135 40.9107C5.96135 44.5054 8.88543 47.4305 12.4801 47.4305C16.0759 47.4305 19 44.5065 19 40.9107C19 39.4353 18.5056 38.0742 17.6754 36.9801H40.5593C39.7302 38.0742 39.2358 39.4353 39.2358 40.9107C39.2358 44.5054 42.161 47.4305 45.7546 47.4305C49.3493 47.4305 52.2733 44.5065 52.2733 40.9107C52.2733 39.4353 51.7801 38.0742 50.9498 36.9801H59.7642V18.4912L46.3631 5.39828H34.2966V27.7268L0.302734 27.7257V36.7728ZM12.4801 44.8423C10.312 44.8423 8.54957 43.0788 8.54957 40.9107C8.54957 38.7437 10.312 36.9801 12.4801 36.9801C14.6471 36.9801 16.4118 38.7437 16.4118 40.9107C16.4118 43.0788 14.6471 44.8423 12.4801 44.8423ZM34.2966 34.3919H2.73245V30.1565H34.2966V34.3919ZM45.7546 44.8423C43.5875 44.8423 41.824 43.0788 41.824 40.9107C41.824 38.7437 43.5875 36.9801 45.7546 36.9801C47.9227 36.9801 49.6851 38.7437 49.6851 40.9107C49.6851 43.0788 47.9227 44.8423 45.7546 44.8423ZM57.176 34.3919H36.8859V7.9865H45.1471L57.176 19.4246V34.3919Z" fill="#0562A9"/>
</svg>