<svg width="48" height="48" viewBox="0 0 48 48" fill="none" xmlns="http://www.w3.org/2000/svg">
<path d="M24.0317 47.4305C11.0762 47.4305 0.570312 36.9247 0.570312 23.9692C0.570312 11.0137 11.0762 0.507812 24.0317 0.507812C36.9872 0.507812 47.493 11.0137 47.493 23.9692C47.493 36.9247 36.9872 47.4305 24.0317 47.4305ZM24.0317 3.63585C12.8031 3.63585 3.69835 12.7406 3.69835 23.9692C3.69835 35.1977 12.8031 44.3025 24.0317 44.3025C35.2602 44.3025 44.365 35.1977 44.365 23.9692C44.365 12.7406 35.2602 3.63585 24.0317 3.63585Z" fill="#0562A9"/>
<path d="M20.3854 33.3544C19.952 33.3521 19.5385 33.1715 19.2437 32.8533L11.939 25.0333C11.714 24.7539 11.5898 24.4059 11.5898 24.0479C11.5898 23.1844 12.2904 22.4838 13.1539 22.4838C13.5507 22.4838 13.9331 22.6346 14.2224 22.905L20.3854 29.4903L33.8375 15.085C34.1334 14.7192 34.5801 14.5063 35.0523 14.5063C35.9158 14.5063 36.6163 15.2069 36.6163 16.0704C36.6163 16.5027 36.4368 16.9161 36.1209 17.2121L21.5271 32.8533C21.2322 33.1715 20.8188 33.3521 20.3854 33.3544Z" fill="#0562A9"/>
</svg>